<mxfile host="Electron" modified="2024-05-25T20:53:09.401Z" agent="Mozilla/5.0 (X11; Linux x86_64) AppleWebKit/537.36 (KHTML, like Gecko) draw.io/24.4.8 Chrome/124.0.6367.207 Electron/30.0.6 Safari/537.36" etag="b6RyxqnpT1V9l2DNDoRJ" version="24.4.8" type="device">
  <diagram name="Страница — 1" id="sJTfAaLfg8OcWKdtF9Ju">
    <mxGraphModel dx="1891" dy="678" grid="1" gridSize="10" guides="1" tooltips="1" connect="1" arrows="1" fold="1" page="1" pageScale="1" pageWidth="827" pageHeight="1169" math="0" shadow="0">
      <root>
        <mxCell id="0" />
        <mxCell id="1" parent="0" />
        <mxCell id="pINCdj-yJY7YIGaiSedD-1" value="FileReader" style="rounded=0;whiteSpace=wrap;html=1;" parent="1" vertex="1">
          <mxGeometry x="-210" y="190" width="110" height="40" as="geometry" />
        </mxCell>
        <mxCell id="pINCdj-yJY7YIGaiSedD-2" value="" style="rounded=1;whiteSpace=wrap;html=1;" parent="1" vertex="1">
          <mxGeometry x="10" y="130" width="110" height="240" as="geometry" />
        </mxCell>
        <mxCell id="pINCdj-yJY7YIGaiSedD-3" value="TIPCSockerReader" style="rounded=0;whiteSpace=wrap;html=1;" parent="1" vertex="1">
          <mxGeometry x="-210" y="250" width="110" height="40" as="geometry" />
        </mxCell>
        <mxCell id="pINCdj-yJY7YIGaiSedD-4" value="" style="endArrow=classic;html=1;rounded=0;exitX=1;exitY=0.5;exitDx=0;exitDy=0;" parent="1" source="pINCdj-yJY7YIGaiSedD-1" edge="1">
          <mxGeometry width="50" height="50" relative="1" as="geometry">
            <mxPoint x="160" y="320" as="sourcePoint" />
            <mxPoint x="10" y="210" as="targetPoint" />
          </mxGeometry>
        </mxCell>
        <mxCell id="pINCdj-yJY7YIGaiSedD-5" value="" style="endArrow=classic;html=1;rounded=0;exitX=1;exitY=0.5;exitDx=0;exitDy=0;" parent="1" source="pINCdj-yJY7YIGaiSedD-3" edge="1">
          <mxGeometry width="50" height="50" relative="1" as="geometry">
            <mxPoint x="160" y="320" as="sourcePoint" />
            <mxPoint x="10" y="270" as="targetPoint" />
          </mxGeometry>
        </mxCell>
        <mxCell id="pINCdj-yJY7YIGaiSedD-6" value="" style="ellipse;whiteSpace=wrap;html=1;" parent="1" vertex="1">
          <mxGeometry x="240" y="165" width="110" height="170" as="geometry" />
        </mxCell>
        <mxCell id="pINCdj-yJY7YIGaiSedD-7" value="" style="rounded=1;whiteSpace=wrap;html=1;" parent="1" vertex="1">
          <mxGeometry x="460" y="130" width="110" height="240" as="geometry" />
        </mxCell>
        <mxCell id="pINCdj-yJY7YIGaiSedD-8" value="TIPCsocketWriter" style="rounded=0;whiteSpace=wrap;html=1;" parent="1" vertex="1">
          <mxGeometry x="680" y="250" width="110" height="40" as="geometry" />
        </mxCell>
        <mxCell id="pINCdj-yJY7YIGaiSedD-9" value="FileWriter" style="rounded=0;whiteSpace=wrap;html=1;" parent="1" vertex="1">
          <mxGeometry x="680" y="190" width="110" height="40" as="geometry" />
        </mxCell>
        <mxCell id="pINCdj-yJY7YIGaiSedD-10" value="" style="endArrow=classic;html=1;rounded=0;entryX=0;entryY=0.5;entryDx=0;entryDy=0;exitX=1;exitY=0.579;exitDx=0;exitDy=0;exitPerimeter=0;" parent="1" source="pINCdj-yJY7YIGaiSedD-7" target="pINCdj-yJY7YIGaiSedD-8" edge="1">
          <mxGeometry width="50" height="50" relative="1" as="geometry">
            <mxPoint x="220" y="320" as="sourcePoint" />
            <mxPoint x="270" y="270" as="targetPoint" />
          </mxGeometry>
        </mxCell>
        <mxCell id="pINCdj-yJY7YIGaiSedD-11" value="" style="endArrow=classic;html=1;rounded=0;entryX=0;entryY=0.5;entryDx=0;entryDy=0;exitX=1.027;exitY=0.333;exitDx=0;exitDy=0;exitPerimeter=0;" parent="1" source="pINCdj-yJY7YIGaiSedD-7" target="pINCdj-yJY7YIGaiSedD-9" edge="1">
          <mxGeometry width="50" height="50" relative="1" as="geometry">
            <mxPoint x="220" y="320" as="sourcePoint" />
            <mxPoint x="270" y="270" as="targetPoint" />
          </mxGeometry>
        </mxCell>
        <mxCell id="pINCdj-yJY7YIGaiSedD-12" value="Queue 1" style="text;html=1;align=center;verticalAlign=middle;resizable=0;points=[];autosize=1;strokeColor=none;fillColor=none;fontStyle=1;fontSize=14;" parent="1" vertex="1">
          <mxGeometry x="25" y="80" width="80" height="30" as="geometry" />
        </mxCell>
        <mxCell id="pINCdj-yJY7YIGaiSedD-13" value="Queue 2" style="text;html=1;align=center;verticalAlign=middle;resizable=0;points=[];autosize=1;strokeColor=none;fillColor=none;fontSize=14;fontStyle=1" parent="1" vertex="1">
          <mxGeometry x="475" y="80" width="80" height="30" as="geometry" />
        </mxCell>
        <mxCell id="pINCdj-yJY7YIGaiSedD-14" value="&lt;b style=&quot;font-size: 15px;&quot;&gt;Worker pool&lt;/b&gt;" style="text;html=1;align=center;verticalAlign=middle;whiteSpace=wrap;rounded=0;fontSize=15;" parent="1" vertex="1">
          <mxGeometry x="260" y="100" width="100" height="30" as="geometry" />
        </mxCell>
        <mxCell id="pINCdj-yJY7YIGaiSedD-15" value="push" style="text;html=1;align=center;verticalAlign=middle;whiteSpace=wrap;rounded=0;" parent="1" vertex="1">
          <mxGeometry x="-80" y="170" width="60" height="30" as="geometry" />
        </mxCell>
        <mxCell id="pINCdj-yJY7YIGaiSedD-17" value="" style="endArrow=classic;html=1;rounded=0;entryX=-0.018;entryY=0.367;entryDx=0;entryDy=0;entryPerimeter=0;exitX=0.973;exitY=0.306;exitDx=0;exitDy=0;exitPerimeter=0;" parent="1" source="pINCdj-yJY7YIGaiSedD-6" target="pINCdj-yJY7YIGaiSedD-7" edge="1">
          <mxGeometry width="50" height="50" relative="1" as="geometry">
            <mxPoint x="220" y="320" as="sourcePoint" />
            <mxPoint x="270" y="270" as="targetPoint" />
          </mxGeometry>
        </mxCell>
        <mxCell id="pINCdj-yJY7YIGaiSedD-18" value="" style="endArrow=classic;html=1;rounded=0;exitX=0.98;exitY=0.669;exitDx=0;exitDy=0;exitPerimeter=0;entryX=0.009;entryY=0.622;entryDx=0;entryDy=0;entryPerimeter=0;" parent="1" source="pINCdj-yJY7YIGaiSedD-6" target="pINCdj-yJY7YIGaiSedD-7" edge="1">
          <mxGeometry width="50" height="50" relative="1" as="geometry">
            <mxPoint x="220" y="320" as="sourcePoint" />
            <mxPoint x="462" y="293" as="targetPoint" />
          </mxGeometry>
        </mxCell>
        <mxCell id="pINCdj-yJY7YIGaiSedD-19" value="" style="endArrow=classic;html=1;rounded=0;exitX=1.007;exitY=0.609;exitDx=0;exitDy=0;exitPerimeter=0;entryX=0.028;entryY=0.667;entryDx=0;entryDy=0;entryPerimeter=0;" parent="1" source="pINCdj-yJY7YIGaiSedD-2" target="pINCdj-yJY7YIGaiSedD-6" edge="1">
          <mxGeometry width="50" height="50" relative="1" as="geometry">
            <mxPoint x="200" y="350" as="sourcePoint" />
            <mxPoint x="250" y="300" as="targetPoint" />
          </mxGeometry>
        </mxCell>
        <mxCell id="pINCdj-yJY7YIGaiSedD-20" value="" style="endArrow=classic;html=1;rounded=0;exitX=1.006;exitY=0.37;exitDx=0;exitDy=0;exitPerimeter=0;entryX=0.023;entryY=0.32;entryDx=0;entryDy=0;entryPerimeter=0;" parent="1" source="pINCdj-yJY7YIGaiSedD-2" target="pINCdj-yJY7YIGaiSedD-6" edge="1">
          <mxGeometry width="50" height="50" relative="1" as="geometry">
            <mxPoint x="180" y="290" as="sourcePoint" />
            <mxPoint x="230" y="240" as="targetPoint" />
          </mxGeometry>
        </mxCell>
        <mxCell id="pINCdj-yJY7YIGaiSedD-21" value="" style="curved=1;endArrow=classic;html=1;rounded=0;entryX=1.009;entryY=0.356;entryDx=0;entryDy=0;entryPerimeter=0;" parent="1" target="pINCdj-yJY7YIGaiSedD-2" edge="1">
          <mxGeometry width="50" height="50" relative="1" as="geometry">
            <mxPoint x="240" y="220" as="sourcePoint" />
            <mxPoint x="210" y="250" as="targetPoint" />
            <Array as="points">
              <mxPoint x="190" y="150" />
            </Array>
          </mxGeometry>
        </mxCell>
        <mxCell id="pINCdj-yJY7YIGaiSedD-24" value="&lt;span style=&quot;color: rgba(0, 0, 0, 0); font-family: monospace; font-size: 0px; text-align: start; text-wrap: nowrap;&quot;&gt;pus&lt;/span&gt;" style="text;html=1;align=center;verticalAlign=middle;whiteSpace=wrap;rounded=0;" parent="1" vertex="1">
          <mxGeometry x="360" y="180" width="60" height="30" as="geometry" />
        </mxCell>
        <mxCell id="pINCdj-yJY7YIGaiSedD-25" value="push()" style="text;html=1;align=center;verticalAlign=middle;whiteSpace=wrap;rounded=0;" parent="1" vertex="1">
          <mxGeometry x="370" y="180" width="60" height="30" as="geometry" />
        </mxCell>
        <mxCell id="pINCdj-yJY7YIGaiSedD-26" value="pop()" style="text;html=1;align=center;verticalAlign=middle;whiteSpace=wrap;rounded=0;" parent="1" vertex="1">
          <mxGeometry x="150" y="150" width="60" height="30" as="geometry" />
        </mxCell>
        <mxCell id="pINCdj-yJY7YIGaiSedD-27" value="deserialize -&amp;gt; serialize" style="text;html=1;align=center;verticalAlign=middle;whiteSpace=wrap;rounded=0;" parent="1" vertex="1">
          <mxGeometry x="245" y="225" width="100" height="50" as="geometry" />
        </mxCell>
        <mxCell id="pINCdj-yJY7YIGaiSedD-31" value="Многопоточная очередь" style="text;html=1;align=center;verticalAlign=middle;whiteSpace=wrap;rounded=0;" parent="1" vertex="1">
          <mxGeometry x="20" y="30" width="100" height="30" as="geometry" />
        </mxCell>
        <mxCell id="pINCdj-yJY7YIGaiSedD-32" value="Многопоточная очередь" style="text;html=1;align=center;verticalAlign=middle;whiteSpace=wrap;rounded=0;" parent="1" vertex="1">
          <mxGeometry x="465" y="20" width="100" height="30" as="geometry" />
        </mxCell>
        <mxCell id="pINCdj-yJY7YIGaiSedD-33" value="Pop()" style="text;html=1;align=center;verticalAlign=middle;whiteSpace=wrap;rounded=0;" parent="1" vertex="1">
          <mxGeometry x="590" y="180" width="60" height="30" as="geometry" />
        </mxCell>
        <mxCell id="pINCdj-yJY7YIGaiSedD-35" value="Message" style="text;html=1;align=center;verticalAlign=middle;whiteSpace=wrap;rounded=0;" parent="1" vertex="1">
          <mxGeometry x="165" y="200" width="30" height="10" as="geometry" />
        </mxCell>
        <mxCell id="pINCdj-yJY7YIGaiSedD-37" value="rapidjson::Document" style="text;html=1;align=center;verticalAlign=middle;whiteSpace=wrap;rounded=0;" parent="1" vertex="1">
          <mxGeometry x="390" y="225" width="30" height="10" as="geometry" />
        </mxCell>
      </root>
    </mxGraphModel>
  </diagram>
</mxfile>
